<?xml version="1.0" encoding="UTF-8" standalone="no"?>
<svg
   xmlns:dc="http://purl.org/dc/elements/1.1/"
   xmlns:cc="http://creativecommons.org/ns#"
   xmlns:rdf="http://www.w3.org/1999/02/22-rdf-syntax-ns#"
   xmlns:svg="http://www.w3.org/2000/svg"
   xmlns="http://www.w3.org/2000/svg"
   xmlns:sodipodi="http://sodipodi.sourceforge.net/DTD/sodipodi-0.dtd"
   xmlns:inkscape="http://www.inkscape.org/namespaces/inkscape"
   viewBox="0 0 250 249.99999"
   version="1.1"
   id="svg24"
   sodipodi:docname="MACplugin.svg"
   inkscape:export-filename="/home/santi/pCloudDrive/00 WPCombo/03 Trabajos/00 wpcombo/Imágenes/Logos/WPC-logo-admin.png"
   inkscape:export-xdpi="47.589008"
   inkscape:export-ydpi="47.589008"
   width="250"
   height="250"
   inkscape:version="0.92.5 (2060ec1f9f, 2020-04-08)">
  <metadata
     id="metadata28">
    <rdf:RDF>
      <cc:Work
         rdf:about="">
        <dc:format>image/svg+xml</dc:format>
        <dc:type
           rdf:resource="http://purl.org/dc/dcmitype/StillImage" />
        <dc:title>Recurso 39</dc:title>
      </cc:Work>
    </rdf:RDF>
  </metadata>
  <sodipodi:namedview
     pagecolor="#ffffff"
     bordercolor="#666666"
     borderopacity="1"
     objecttolerance="10"
     gridtolerance="10"
     guidetolerance="10"
     inkscape:pageopacity="0"
     inkscape:pageshadow="2"
     inkscape:window-width="1920"
     inkscape:window-height="1015"
     id="namedview26"
     showgrid="false"
     fit-margin-top="0"
     fit-margin-left="0"
     fit-margin-right="0"
     fit-margin-bottom="0"
     inkscape:zoom="1.9491245"
     inkscape:cx="4.8357912"
     inkscape:cy="115.89242"
     inkscape:window-x="0"
     inkscape:window-y="0"
     inkscape:window-maximized="1"
     inkscape:current-layer="svg24" />
  <defs
     id="defs4">
    <style
       id="style2">.cls-1,.cls-2{fill:#f90;}.cls-2{stroke:#f90;}.cls-2,.cls-3{stroke-miterlimit:10;}.cls-3{fill:#59980d;stroke:#59980d;stroke-width:2px;}</style>
  </defs>
  <title
     id="title6">Recurso 39</title>
  <text
     id="text839"
     y="104.6967"
     x="163.61565"
     style="font-style:normal;font-variant:normal;font-weight:normal;font-stretch:normal;font-size:40.00000381px;line-height:1.25;font-family:C059;-inkscape-font-specification:C059;letter-spacing:0px;word-spacing:0px;fill:#000000;fill-opacity:1;stroke:none;stroke-width:1"
     xml:space="preserve"><tspan
       style="font-style:normal;font-variant:normal;font-weight:normal;font-stretch:normal;font-family:C059;-inkscape-font-specification:C059;stroke-width:1"
       y="139.1767"
       x="163.61565"
       id="tspan837"
       sodipodi:role="line" /></text>
  <g
     id="g879"
     transform="translate(8.5308671,33.250436)">
    <g
       id="g864">
      <path
         class="cls-1"
         d="M 4.7560546,59.851927 A 6.210816,6.0056777 0 0 1 3.0919125,55.522476 q 0,-0.574706 0,-1.867795 0,-1.293088 0,-1.915687 a 6.1711935,5.9673639 0 0 1 1.6839533,-4.291138 5.7353468,5.5459129 0 0 1 4.140544,-1.446343 6.8645861,6.6378543 0 0 1 2.8726262,0.574706 4.9528038,4.7892166 0 0 1 2.129706,1.791167 5.7848748,5.593805 0 0 1 0.841976,3.065099 0.53490281,0.5172354 0 0 1 -0.108961,0.325666 0.33679066,0.32566673 0 0 1 -0.267452,0.134098 H 10.838098 A 0.55471403,0.53639226 0 0 1 10.431968,51.76773 1.2084841,1.1685689 0 0 1 10.194233,51.27923 1.8721598,1.8103239 0 0 0 9.6890472,50.388435 1.1985785,1.1589904 0 0 0 8.8965986,50.139396 1.1391449,1.1015198 0 0 0 7.9654714,50.532112 2.2683841,2.1934612 0 0 0 7.6187752,51.853936 q 0,0.574706 0,1.762431 0,1.187726 0,1.800746 a 2.2683841,2.1934612 0 0 0 0.3466962,1.321824 1.1391449,1.1015198 0 0 0 0.9311272,0.392715 q 0.9905607,0 1.2976344,-1.139833 a 1.0896168,1.0536277 0 0 1 0.217924,-0.4885 0.58443085,0.56512756 0 0 1 0.425941,-0.12452 H 14.3744 a 0.33679066,0.32566673 0 0 1 0.267451,0.134098 0.53490281,0.5172354 0 0 1 0.108962,0.325667 5.7749692,5.5842266 0 0 1 -0.841977,3.065099 4.9528038,4.7892166 0 0 1 -2.129706,1.791167 6.8645861,6.6378543 0 0 1 -2.8726258,0.574706 5.8046861,5.6129619 0 0 1 -4.1504496,-1.417609 z"
         id="path8"
         inkscape:connector-curvature="0"
         style="fill:#ff9900;stroke-width:0.97406471" />
      <path
         class="cls-1"
         d="m 17.306459,59.794457 a 6.2306272,6.0248345 0 0 1 -1.64433,-4.262403 q 0,-0.574706 0,-1.848638 0,-1.273931 0,-1.915686 a 7.1320375,6.896472 0 0 1 0.792448,-3.132148 4.9528038,4.7892166 0 0 1 1.981122,-1.992314 6.1117599,5.9098933 0 0 1 2.971682,-0.680069 6.1216655,5.9194718 0 0 1 2.971682,0.680069 4.9528038,4.7892166 0 0 1 1.981122,1.992314 7.1320375,6.896472 0 0 1 0.792448,3.132148 q 0,1.187725 0,1.915686 0,0.727961 0,1.848638 a 6.2306272,6.0248345 0 0 1 -1.565086,4.262403 5.6561019,5.4692854 0 0 1 -4.140544,1.4655 5.6561019,5.4692854 0 0 1 -4.140544,-1.4655 z m 5.071671,-3.093834 a 2.2485729,2.1743044 0 0 0 0.356602,-1.293089 q 0,-1.226039 0,-1.800745 0,-0.574706 0,-1.762432 a 2.2188561,2.1455691 0 0 0 -0.366507,-1.293088 1.1787673,1.1398336 0 0 0 -1.842443,0 2.2188561,2.1455691 0 0 0 -0.366508,1.293088 q 0,0.574706 0,1.762432 0,1.187726 0,1.800745 a 2.2584785,2.1838828 0 0 0 0.356602,1.293089 1.1985785,1.1589904 0 0 0 1.852349,0 z"
         id="path10"
         inkscape:connector-curvature="0"
         style="fill:#ff9900;stroke-width:0.97406471" />
      <path
         class="cls-1"
         d="m 28.846492,60.886398 a 0.6537701,0.6321766 0 0 1 -0.138678,-0.402294 v -13.69716 a 0.6537701,0.6321766 0 0 1 0.138678,-0.402294 0.40612991,0.39271577 0 0 1 0.326885,-0.172412 h 2.733948 a 0.82216543,0.79500996 0 0 1 0.742921,0.574706 l 2.516024,5.086149 2.516024,-5.086149 a 0.82216543,0.79500996 0 0 1 0.742921,-0.574706 h 2.704231 a 0.41603552,0.4022942 0 0 1 0.326885,0.172412 0.6537701,0.6321766 0 0 1 0.138678,0.402294 v 13.69716 a 0.6537701,0.6321766 0 0 1 -0.138678,0.402294 0.40612991,0.39271577 0 0 1 -0.326885,0.172412 H 37.999274 A 0.40612991,0.39271577 0 0 1 37.672389,60.886398 0.6537701,0.6321766 0 0 1 37.53371,60.484104 v -5.814109 l -1.14905,2.250932 a 1.6245196,1.5708631 0 0 1 -0.267452,0.383137 0.49528038,0.47892166 0 0 1 -0.376413,0.143677 h -1.208484 a 0.49528038,0.47892166 0 0 1 -0.376413,-0.143677 1.5749916,1.5229709 0 0 1 -0.267451,-0.383137 l -1.139145,-2.289246 v 5.804531 a 0.6537701,0.6321766 0 0 1 -0.138679,0.402294 0.40612991,0.39271577 0 0 1 -0.326885,0.172412 H 29.14366 a 0.40612991,0.39271577 0 0 1 -0.297168,-0.12452 z"
         id="path12"
         inkscape:connector-curvature="0"
         style="fill:#ff9900;stroke-width:0.97406471" />
      <path
         class="cls-1"
         d="m 43.48698,60.886398 a 0.6537701,0.6321766 0 0 1 -0.138678,-0.402294 v -13.69716 a 0.6537701,0.6321766 0 0 1 0.138678,-0.402294 0.40612991,0.39271577 0 0 1 0.326885,-0.172412 h 5.755158 a 5.0320487,4.8658441 0 0 1 3.635358,1.130256 4.6358244,4.4827068 0 0 1 1.168862,3.352451 3.2391337,3.1321477 0 0 1 -0.435847,1.618755 3.0608327,2.9597359 0 0 1 -0.99056,1.024893 2.8131926,2.7202751 0 0 1 1.168861,1.197304 4.0414879,3.9080008 0 0 1 0.475469,1.915687 4.8042197,4.6455402 0 0 1 -1.248106,3.505706 5.0716711,4.9041578 0 0 1 -3.635358,1.158991 H 43.764337 A 0.40612991,0.39271577 0 0 1 43.48698,60.886398 Z m 5.646197,-9.089933 a 0.58443085,0.56512756 0 0 0 0.524997,-0.287353 1.287729,1.2451963 0 0 0 0.178301,-0.67049 1.3471626,1.3026669 0 0 0 -0.178301,-0.680069 0.58443085,0.56512756 0 0 0 -0.524997,-0.296931 h -1.46603 v 1.915686 z m 0.158489,5.612962 a 0.6537701,0.6321766 0 0 0 0.594337,-0.316088 1.4065963,1.3601375 0 0 0 0.198112,-0.718383 1.3273514,1.2835101 0 0 0 -0.217923,-0.718382 0.66367571,0.64175503 0 0 0 -0.584431,-0.316089 h -1.614614 v 2.07852 z"
         id="path14"
         inkscape:connector-curvature="0"
         style="fill:#ff9900;stroke-width:0.97406471" />
      <path
         class="cls-1"
         d="m 57.255775,59.794457 a 6.2306272,6.0248345 0 0 1 -1.664142,-4.252825 q 0,-0.574706 0,-1.848637 0,-1.273932 0,-1.915687 a 7.1320375,6.896472 0 0 1 0.792448,-3.132147 4.9528038,4.7892166 0 0 1 1.981122,-1.992315 6.6763795,6.455864 0 0 1 5.943364,0 4.9528038,4.7892166 0 0 1 1.981122,1.992315 7.1320375,6.896472 0 0 1 0.792449,3.132147 q 0,1.187726 0,1.915687 0,0.727961 0,1.848637 a 6.2306272,6.0248345 0 0 1 -1.584898,4.252825 6.4287393,6.2164032 0 0 1 -8.281088,0 z m 5.071671,-3.093834 a 2.2485729,2.1743044 0 0 0 0.356602,-1.293089 q 0,-1.226039 0,-1.800745 0,-0.574706 0,-1.762432 a 2.2188561,2.1455691 0 0 0 -0.366508,-1.293088 1.1787673,1.1398336 0 0 0 -1.842443,0 2.2188561,2.1455691 0 0 0 -0.366507,1.293088 q 0,0.574706 0,1.762432 0,1.187726 0,1.800745 a 2.2584785,2.1838828 0 0 0 0.356602,1.293089 1.1985785,1.1589904 0 0 0 1.852348,0 z"
         id="path16"
         inkscape:connector-curvature="0"
         style="fill:#ff9900;stroke-width:0.97406471" />
    </g>
    <g
       id="g868">
      <path
         class="cls-2"
         d="M 62.338567,7.4100051 Q 58.121833,3.8564064 50.674849,3.8564064 h -8.636567 c 1.228269,4.003785 -0.232114,20.9671906 -1.102541,24.4824756 -1.044512,4.252824 -2.350152,9.578433 -4.777675,12.049669 a 16.905621,16.743101 0 0 1 -2.901422,2.174304 c -1.044512,0.67049 -1.789211,0.67049 -1.537754,0.957843 0.251456,0.287353 2.553251,0.459765 2.901422,0.459765 h 10.928691 a 1.3153114,1.3026669 0 0 0 0.967141,-0.469343 1.5764395,1.5612846 0 0 0 0.425542,-1.091941 V 31.490186 h 3.733163 q 7.456655,0 11.692732,-3.352452 4.236076,-3.352451 4.236076,-10.239345 -0.0097,-6.953942 -4.26509,-10.4883839 z M 52.096546,20.111007 A 2.2727808,2.2509318 0 0 1 50.404049,20.88686 H 46.6999 v -6.360079 h 3.684807 a 1.99231,1.9731573 0 0 1 1.847239,0.957843 4.4681904,4.4252362 0 0 1 0.580284,2.289246 3.2882786,3.2566673 0 0 1 -0.715684,2.337137 z"
         id="path18"
         inkscape:connector-curvature="0"
         style="fill:#ff9900;stroke:#ff9900;stroke-width:0.96248084;stroke-miterlimit:10" />
      <path
         class="cls-3"
         d="m 24.020449,30.053421 -0.34817,1.264353 a 35.784208,35.440203 0 0 1 -2.901423,7.432865 12.031231,11.915571 0 0 1 -2.640294,3.467392 C 16.099566,43.942149 13.9235,43.798473 12.066589,41.844473 A 17.611633,17.442327 0 0 1 8.7976535,36.241089 58.821502,58.256031 0 0 1 5.6351032,24.354253 109.61573,108.56196 0 0 1 4.1843921,9.8716624 C 4.1263636,8.1475444 4.0683352,8.7509857 4.0586638,6.9981324 A 2.6402943,2.6149123 0 0 1 6.863372,4.2395437 c 1.4120255,0 -1.7118392,0 -0.2998136,0 0,0 2.4952232,0 2.5339088,3.1129908 0.077371,3.4769715 0,4.2528245 0.1934281,7.7297955 a 111.67574,110.60217 0 0 0 2.2147527,18.256494 23.395135,23.17023 0 0 0 1.595782,5.076569 8.4237961,8.3428154 0 0 0 1.10254,1.724118 1.3249829,1.3122454 0 0 0 2.06001,0.134098 5.8028446,5.74706 0 0 0 1.421697,-2.126412 30.948505,30.650987 0 0 0 1.866582,-6.369658 97.913332,96.972059 0 0 0 1.489397,-11.00562 109.97358,108.91637 0 0 0 0.560941,-10.9002566 c 0.0097,-2.7585888 2.030996,-2.7585888 2.301795,-2.7585888 1.412026,0 -1.199254,0 0.212771,0 0.280471,0 2.485552,0 2.485552,2.806481 0,2.4425004 0,2.5095494 0.154743,4.9520494 a 103.48406,102.48924 0 0 0 2.350152,19.195181 19.8554,19.664524 0 0 0 1.557096,4.655118 7.1374989,7.0688838 0 0 0 1.034841,1.494236 1.3539971,1.3409807 0 0 0 2.19541,0 7.3019128,7.2317171 0 0 0 1.373339,-2.452079 40.687612,40.296469 0 0 0 1.982639,-7.911786 c 0.676999,-3.984628 1.083198,-8.00757 1.363668,-12.049669 0.290143,-4.224089 0.435214,-6.465442 0.444885,-10.6991098 0,-2.7873241 1.798882,-2.7490103 2.495223,-2.7490103 1.315312,0 -1.315311,0 0,0 0.251457,0 2.504895,0 2.504895,2.7585887 a 92.091144,91.205842 0 0 1 -2.282452,20.6989944 45.329888,44.894117 0 0 1 -3.375321,10.373443 13.375557,13.246973 0 0 1 -2.669309,3.888844 c -1.934282,1.829481 -4.091005,1.829481 -6.034958,0 a 14.816597,14.67416 0 0 1 -3.075508,-4.607227 41.345268,40.947802 0 0 1 -2.398509,-6.944364 c 0,-0.134098 -0.07737,-0.268196 -0.116057,-0.402294 -0.03869,-0.134098 -0.04836,-0.01916 -0.08704,-0.06705 z"
         id="path20"
         inkscape:connector-curvature="0"
         style="fill:#59980d;stroke:#59980d;stroke-width:1.92496169px;stroke-miterlimit:10" />
    </g>
  </g>
  <text
     transform="scale(0.89769112,1.1139689)"
     id="text835"
     y="190.51346"
     x="6.7618365"
     style="font-style:normal;font-variant:normal;font-weight:normal;font-stretch:normal;font-size:112.37014008px;line-height:1.25;font-family:C059;-inkscape-font-specification:C059;letter-spacing:0px;word-spacing:0px;fill:#0d0d99;fill-opacity:1;stroke:none;stroke-width:6.48289251"
     xml:space="preserve"><tspan
       id="tspan832"
       style="font-style:normal;font-variant:normal;font-weight:900;font-stretch:normal;font-family:rubik;-inkscape-font-specification:'rubik Heavy';fill:#0d0d99;fill-opacity:1;stroke-width:6.48289251"
       y="190.51346"
       x="6.7618365"
       sodipodi:role="line">MAC</tspan></text>
  <text
     transform="scale(0.89769112,1.1139689)"
     id="text835-5"
     y="48.235893"
     x="266.07925"
     style="font-style:normal;font-variant:normal;font-weight:normal;font-stretch:normal;font-size:21.17048073px;line-height:0.80000001;font-family:C059;-inkscape-font-specification:C059;text-align:end;letter-spacing:0px;word-spacing:0px;text-anchor:end;fill:#0d0d99;fill-opacity:1;stroke:none;stroke-width:1.22137392"
     xml:space="preserve"><tspan
       style="font-style:normal;font-variant:normal;font-weight:900;font-stretch:normal;font-family:rubik;-inkscape-font-specification:'rubik Heavy';text-align:end;text-anchor:end;fill:#0d0d99;fill-opacity:1;stroke-width:1.22137392"
       y="48.235893"
       x="266.07925"
       sodipodi:role="line"
       id="tspan899">Manage</tspan><tspan
       style="font-style:normal;font-variant:normal;font-weight:900;font-stretch:normal;font-family:rubik;-inkscape-font-specification:'rubik Heavy';text-align:end;text-anchor:end;fill:#0d0d99;fill-opacity:1;stroke-width:1.22137392"
       y="65.172279"
       x="266.07925"
       sodipodi:role="line"
       id="tspan905"></tspan><tspan
       style="font-style:normal;font-variant:normal;font-weight:900;font-stretch:normal;font-family:rubik;-inkscape-font-specification:'rubik Heavy';text-align:end;text-anchor:end;fill:#0d0d99;fill-opacity:1;stroke-width:1.22137392"
       y="83.210152"
       x="266.07925"
       sodipodi:role="line"
       id="tspan1007">Admin Column</tspan></text>
  <text
     xml:space="preserve"
     style="font-style:normal;font-variant:normal;font-weight:normal;font-stretch:normal;font-size:18.69434547px;line-height:0.80000001;font-family:C059;-inkscape-font-specification:C059;text-align:end;letter-spacing:0px;word-spacing:0px;text-anchor:end;fill:#0d0d99;fill-opacity:1;stroke:none;stroke-width:1.07851994"
     x="264.8743"
     y="65.821404"
     id="text1003"
     transform="scale(0.89769112,1.1139689)"><tspan
       id="tspan1001"
       sodipodi:role="line"
       x="264.8743"
       y="65.821404"
       style="font-style:normal;font-variant:normal;font-weight:900;font-stretch:normal;font-family:rubik;-inkscape-font-specification:'rubik Heavy';text-align:end;text-anchor:end;fill:#bcbcf9;fill-opacity:1;stroke-width:1.07851994">Featured Image</tspan></text>
</svg>
